<svg width="1024" height="1024" viewBox="0 0 1024 1024" fill="none" xmlns="http://www.w3.org/2000/svg">
<rect width="1024" height="1024" fill="black"/>
<path fill-rule="evenodd" clip-rule="evenodd" d="M570.433 171.328C570.033 171.74 564.408 172.456 557.933 172.92C533.198 174.691 520.312 176.69 500.16 181.884C497.96 182.451 494.135 183.307 491.66 183.787C482.446 185.571 477.989 186.692 472.646 188.566C469.629 189.624 464.01 191.502 460.16 192.738C452.845 195.087 443.308 198.605 435.66 201.776C433.185 202.802 427.56 205.074 423.16 206.825C399.808 216.116 369.113 233.653 347.285 250.173C342.816 253.555 338.035 257.042 336.66 257.921C332.997 260.263 307.574 286.22 301.529 293.79C283.307 316.607 268.314 350.36 264.437 377.29C263.139 386.309 263.12 418.366 264.408 426.79C269.247 458.441 288.522 491.898 313.16 511.415C318.843 515.916 336.319 527.79 337.262 527.79C337.605 527.79 342.222 529.75 347.522 532.146C367.979 541.393 378.223 544.139 406.66 547.998C417.83 549.513 453.752 549.522 465.16 548.013C470.11 547.357 477.085 546.427 480.66 545.944C492.073 544.405 503.481 540.016 507.707 535.539C510.857 532.201 512.839 527.93 512.188 525.879C510.818 521.562 502.755 515.399 492.428 510.774C455.799 494.373 433.214 467.115 428.595 433.734C427.319 424.514 428.471 406.632 430.78 399.79C435.486 385.851 442 372.778 447.651 365.928C466.933 342.557 487.411 326.798 523.16 307.821C527.56 305.485 534.31 302.322 538.16 300.791C542.01 299.26 548.535 296.66 552.66 295.013C561.726 291.393 578.659 285.474 584.16 284.002C586.36 283.413 591.31 282.03 595.16 280.927C599.01 279.824 605.085 278.195 608.66 277.307C612.235 276.418 616.542 275.263 618.231 274.741C619.92 274.218 622.276 273.79 623.467 273.79C625.541 273.79 630.603 272.755 639.136 270.585C647.358 268.495 664.631 265.991 692.16 262.899C726.435 259.049 732.149 257.553 741.66 249.938C750.028 243.238 752.66 237.949 752.66 227.829C752.66 212.547 742.902 202.082 719.303 192.055C706.947 186.805 699.919 184.567 687.16 181.819C684.96 181.345 680.46 180.21 677.16 179.295C666.479 176.335 652.244 174.231 633.16 172.79C615.871 171.484 571.29 170.446 570.433 171.328ZM604.66 442.402C576.778 445.704 566.351 448.732 558.188 455.9C553.972 459.602 553.263 465.745 556.568 469.946C558.739 472.706 566.55 477.189 573.473 479.649C586.512 484.281 608.507 501.255 618.458 514.365C622.232 519.337 628.337 532.395 630.25 539.589C632.146 546.713 632.151 571.835 630.259 578.991C625.441 597.209 620.935 606.26 608.512 622.665C596.798 638.134 568.394 662.586 549.585 673.392C535.855 681.28 527.016 686.211 523.66 687.856C508.737 695.17 500.841 698.79 499.811 698.79C499.146 698.79 495.803 700.215 492.381 701.956C486.245 705.079 458.466 715.176 451.66 716.757C449.735 717.204 444.56 718.787 440.16 720.275C432.521 722.857 429.125 723.794 420.16 725.79C414.887 726.964 409.49 728.319 402.16 730.31C392.815 732.848 388.565 733.857 383.16 734.821C375.73 736.145 369.043 737.467 360.66 739.271C350.458 741.467 342.744 742.721 332.66 743.825C327.985 744.337 320.335 745.195 315.66 745.732C310.985 746.269 302.435 747.16 296.66 747.712C273.841 749.891 264.336 752.293 251.879 759.028C235.504 767.881 228.835 782.605 233.409 799.805C236.728 812.288 251.033 825.964 268.402 833.259C282.075 839.001 290.425 842.118 294.16 842.872C296.36 843.317 300.185 844.18 302.66 844.79C305.135 845.4 308.976 846.239 311.197 846.654C313.417 847.069 315.781 847.747 316.45 848.16C317.783 848.984 326.922 850.36 341.66 851.956C346.885 852.521 365.56 852.976 383.16 852.966C422.365 852.944 439.515 851.683 460.16 847.305C464.56 846.372 470.86 845.229 474.16 844.765C480.162 843.92 485.648 842.798 493.16 840.876C501.412 838.766 510.291 836.605 514.16 835.767C524.145 833.602 531.149 831.666 538.66 828.997C541.685 827.921 547.76 825.89 552.16 824.483C608.682 806.406 661.66 779.429 700.657 748.868C725.569 729.344 750.216 703.085 762.207 683.29C767.899 673.894 778.295 653.591 779.616 649.29C780.123 647.64 781.3 644.265 782.231 641.79C783.163 639.315 784.315 635.603 784.793 633.54C785.27 631.478 786.122 627.877 786.686 625.54C787.849 620.725 789.089 613.718 790.712 602.79C792.018 594.003 791.384 556.1 789.843 550.79C789.284 548.865 788.298 544.815 787.651 541.79C782.13 515.951 764.267 488.676 742.416 472.722C728.892 462.848 704.287 450.901 692.16 448.321C690.51 447.97 687.135 447.23 684.66 446.677C660.946 441.377 628.123 439.623 604.66 442.402Z" fill="white"/>
</svg>
