<svg width="560" height="682" viewBox="0 0 560 682" fill="none" xmlns="http://www.w3.org/2000/svg">
<path fill-rule="evenodd" clip-rule="evenodd" d="M338.433 0.327631C338.033 0.739631 332.408 1.45563 325.933 1.91963C301.198 3.69063 288.312 5.68963 268.16 10.8836C265.96 11.4506 262.135 12.3066 259.66 12.7866C250.446 14.5706 245.989 15.6916 240.646 17.5656C237.629 18.6236 232.01 20.5016 228.16 21.7376C220.845 24.0866 211.308 27.6046 203.66 30.7756C201.185 31.8016 195.56 34.0736 191.16 35.8246C167.808 45.1156 137.113 62.6526 115.285 79.1726C110.816 82.5546 106.035 86.0416 104.66 86.9206C100.997 89.2626 75.5738 115.22 69.5288 122.79C51.3068 145.607 36.3138 179.36 32.4368 206.29C31.1388 215.309 31.1198 247.366 32.4078 255.79C37.2468 287.441 56.5218 320.898 81.1598 340.415C86.8428 344.916 104.319 356.79 105.262 356.79C105.605 356.79 110.222 358.75 115.522 361.146C135.979 370.393 146.223 373.139 174.66 376.998C185.83 378.513 221.752 378.522 233.16 377.013C238.11 376.357 245.085 375.427 248.66 374.944C260.073 373.405 271.481 369.016 275.707 364.539C278.857 361.201 280.839 356.93 280.188 354.879C278.818 350.562 270.755 344.399 260.428 339.774C223.799 323.373 201.214 296.115 196.595 262.734C195.319 253.514 196.471 235.632 198.78 228.79C203.486 214.851 210 201.778 215.651 194.928C234.933 171.557 255.411 155.798 291.16 136.821C295.56 134.485 302.31 131.322 306.16 129.791C310.01 128.26 316.535 125.66 320.66 124.013C329.726 120.393 346.659 114.474 352.16 113.002C354.36 112.413 359.31 111.03 363.16 109.927C367.01 108.824 373.085 107.195 376.66 106.307C380.235 105.418 384.542 104.263 386.231 103.741C387.92 103.218 390.276 102.79 391.467 102.79C393.541 102.79 398.603 101.755 407.136 99.5846C415.358 97.4946 432.631 94.9906 460.16 91.8986C494.435 88.0486 500.149 86.5526 509.66 78.9376C518.028 72.2376 520.66 66.9486 520.66 56.8286C520.66 41.5466 510.902 31.0816 487.303 21.0546C474.947 15.8046 467.919 13.5666 455.16 10.8186C452.96 10.3446 448.46 9.20963 445.16 8.29463C434.479 5.33463 420.244 3.23063 401.16 1.78963C383.871 0.483629 339.29 -0.554369 338.433 0.327631ZM372.66 271.402C344.778 274.704 334.351 277.732 326.188 284.9C321.972 288.602 321.263 294.745 324.568 298.946C326.739 301.706 334.55 306.189 341.473 308.649C354.512 313.281 376.507 330.255 386.458 343.365C390.232 348.337 396.337 361.395 398.25 368.589C400.146 375.713 400.151 400.835 398.259 407.991C393.441 426.209 388.935 435.26 376.512 451.665C364.798 467.134 336.394 491.586 317.585 502.392C303.855 510.28 295.016 515.211 291.66 516.856C276.737 524.17 268.841 527.79 267.811 527.79C267.146 527.79 263.803 529.215 260.381 530.956C254.245 534.079 226.466 544.176 219.66 545.757C217.735 546.204 212.56 547.787 208.16 549.275C200.521 551.857 197.125 552.794 188.16 554.79C182.887 555.964 177.49 557.319 170.16 559.31C160.815 561.848 156.565 562.857 151.16 563.821C143.73 565.145 137.043 566.467 128.66 568.271C118.458 570.467 110.744 571.721 100.66 572.825C95.9848 573.337 88.3348 574.195 83.6598 574.732C78.9848 575.269 70.4348 576.16 64.6598 576.712C41.8408 578.891 32.3358 581.293 19.8788 588.028C3.50385 596.881 -3.16515 611.605 1.40885 628.805C4.72785 641.288 19.0329 654.964 36.4019 662.259C50.0749 668.001 58.4248 671.118 62.1598 671.872C64.3598 672.317 68.1848 673.18 70.6598 673.79C73.1348 674.4 76.9758 675.239 79.1968 675.654C81.4168 676.069 83.7808 676.747 84.4498 677.16C85.7828 677.984 94.9218 679.36 109.66 680.956C114.885 681.521 133.56 681.976 151.16 681.966C190.365 681.944 207.515 680.683 228.16 676.305C232.56 675.372 238.86 674.229 242.16 673.765C248.162 672.92 253.648 671.798 261.16 669.876C269.412 667.766 278.291 665.605 282.16 664.767C292.145 662.602 299.149 660.666 306.66 657.997C309.685 656.921 315.76 654.89 320.16 653.483C376.682 635.406 429.66 608.429 468.657 577.868C493.569 558.344 518.216 532.085 530.207 512.29C535.899 502.894 546.295 482.591 547.616 478.29C548.123 476.64 549.3 473.265 550.231 470.79C551.163 468.315 552.315 464.603 552.793 462.54C553.27 460.478 554.122 456.877 554.686 454.54C555.849 449.725 557.089 442.718 558.712 431.79C560.018 423.003 559.384 385.1 557.843 379.79C557.284 377.865 556.298 373.815 555.651 370.79C550.13 344.951 532.267 317.676 510.416 301.722C496.892 291.848 472.287 279.901 460.16 277.321C458.51 276.97 455.135 276.23 452.66 275.677C428.946 270.377 396.123 268.623 372.66 271.402Z" fill="white"/>
</svg>
