<svg width="477" height="134" viewBox="0 0 477 134" fill="none" xmlns="http://www.w3.org/2000/svg">
<path d="M77.9191 56.6975L60.5966 59.7656C59.8722 57.5497 58.7216 55.4403 57.1449 53.4375C55.6108 51.4347 53.5227 49.794 50.8807 48.5156C48.2387 47.2372 44.9361 46.598 40.973 46.598C35.5611 46.598 31.0441 47.8125 27.4219 50.2415C23.7997 52.6278 21.9887 55.7173 21.9887 59.51C21.9887 62.7912 23.2031 65.4333 25.6321 67.4361C28.0611 69.4389 31.9816 71.0796 37.3935 72.358L52.9901 75.9375C62.0242 78.0256 68.7571 81.2429 73.1889 85.5895C77.6208 89.9361 79.8367 95.5824 79.8367 102.528C79.8367 108.409 78.1321 113.651 74.723 118.253C71.3566 122.813 66.6477 126.392 60.5966 128.991C54.5881 131.591 47.6208 132.891 39.6946 132.891C28.7003 132.891 19.7301 130.547 12.7841 125.859C5.83809 121.129 1.57672 114.418 1.6585e-05 105.724L18.473 102.912C19.6236 107.727 21.9887 111.371 25.5682 113.842C29.1477 116.271 33.8139 117.486 39.5668 117.486C45.831 117.486 50.8381 116.186 54.5881 113.587C58.3381 110.945 60.2131 107.727 60.2131 103.935C60.2131 100.866 59.0625 98.2884 56.7614 96.2003C54.5029 94.1122 51.0298 92.5355 46.3423 91.4702L29.723 87.8267C20.5611 85.7386 13.7855 82.4148 9.39632 77.8551C5.04973 73.2955 2.87644 67.5213 2.87644 60.5327C2.87644 54.7372 4.49576 49.6662 7.73439 45.3196C10.973 40.973 15.4475 37.5852 21.1577 35.1563C26.8679 32.6847 33.4091 31.4489 40.7813 31.4489C51.3921 31.4489 59.7443 33.75 65.8381 38.3523C71.9318 42.9119 75.9588 49.027 77.9191 56.6975ZM125.823 133.082C119.601 133.082 113.976 131.932 108.948 129.631C103.92 127.287 99.9352 123.899 96.9948 119.467C94.0971 115.036 92.6482 109.602 92.6482 103.168C92.6482 97.6279 93.7136 93.0682 95.8443 89.4886C97.9749 85.9091 100.851 83.0753 104.474 80.9872C108.096 78.8992 112.144 77.3225 116.618 76.2571C121.093 75.1918 125.653 74.3821 130.297 73.8281C136.178 73.1463 140.951 72.5923 144.616 72.1662C148.28 71.6975 150.944 70.9517 152.606 69.929C154.268 68.9063 155.099 67.2443 155.099 64.9432V64.4957C155.099 58.9134 153.522 54.5881 150.368 51.5199C147.258 48.4517 142.613 46.9176 136.434 46.9176C129.999 46.9176 124.928 48.3452 121.221 51.2003C117.556 54.0128 115.02 57.1449 113.614 60.5966L95.6525 56.5057C97.7832 50.5398 100.894 45.7244 104.985 42.0597C109.118 38.3523 113.87 35.6676 119.239 34.0057C124.608 32.3011 130.255 31.4489 136.178 31.4489C140.099 31.4489 144.253 31.9176 148.643 32.8551C153.074 33.75 157.208 35.4119 161.043 37.8409C164.921 40.2699 168.096 43.7429 170.567 48.26C173.039 52.7344 174.275 58.5511 174.275 65.7102V130.909H155.61V117.486H154.843C153.607 119.957 151.753 122.386 149.282 124.773C146.81 127.159 143.635 129.141 139.758 130.717C135.88 132.294 131.235 133.082 125.823 133.082ZM129.978 117.741C135.262 117.741 139.779 116.697 143.529 114.609C147.322 112.521 150.198 109.794 152.158 106.428C154.161 103.018 155.162 99.375 155.162 95.4972V82.8409C154.481 83.5227 153.16 84.1619 151.199 84.7585C149.282 85.3125 147.087 85.8026 144.616 86.2287C142.144 86.6122 139.736 86.9744 137.393 87.3154C135.049 87.6136 133.089 87.8693 131.512 88.0824C127.804 88.5511 124.417 89.3395 121.349 90.4475C118.323 91.5554 115.894 93.1534 114.062 95.2415C112.272 97.2869 111.377 100.014 111.377 103.423C111.377 108.153 113.124 111.733 116.618 114.162C120.113 116.548 124.566 117.741 129.978 117.741ZM215.243 8.58307e-06V130.909H196.131V8.58307e-06H215.243ZM274.109 132.827C266.183 132.827 259.109 130.803 252.888 126.754C246.709 122.663 241.851 116.847 238.314 109.304C234.82 101.719 233.073 92.6208 233.073 82.01C233.073 71.3992 234.841 62.3225 238.378 54.7798C241.957 47.2372 246.858 41.4631 253.08 37.4574C259.301 33.4517 266.354 31.4489 274.237 31.4489C280.331 31.4489 285.232 32.4716 288.939 34.5171C292.689 36.5199 295.587 38.8636 297.632 41.5483C299.72 44.233 301.34 46.598 302.49 48.6435H303.641V8.58307e-06H322.753V130.909H304.088V115.632H302.49C301.34 117.72 299.678 120.107 297.504 122.791C295.374 125.476 292.433 127.82 288.683 129.822C284.933 131.825 280.075 132.827 274.109 132.827ZM278.328 116.527C283.825 116.527 288.47 115.078 292.263 112.18C296.098 109.24 298.996 105.17 300.956 99.9716C302.959 94.7727 303.96 88.7216 303.96 81.8182C303.96 75 302.98 69.0341 301.02 63.9205C299.06 58.8068 296.183 54.8225 292.391 51.9673C288.598 49.1122 283.911 47.6847 278.328 47.6847C272.575 47.6847 267.781 49.1761 263.946 52.1591C260.111 55.1421 257.213 59.2117 255.253 64.3679C253.335 69.5242 252.377 75.3409 252.377 81.8182C252.377 88.3807 253.357 94.2827 255.317 99.5242C257.277 104.766 260.175 108.92 264.01 111.989C267.888 115.014 272.661 116.527 278.328 116.527ZM387.788 132.891C378.583 132.891 370.55 130.781 363.69 126.563C356.829 122.344 351.502 116.442 347.709 108.857C343.917 101.271 342.02 92.4077 342.02 82.2656C342.02 72.081 343.917 63.1747 347.709 55.5469C351.502 47.919 356.829 41.9957 363.69 37.777C370.55 33.5583 378.583 31.4489 387.788 31.4489C396.992 31.4489 405.025 33.5583 411.886 37.777C418.746 41.9957 424.073 47.919 427.866 55.5469C431.658 63.1747 433.555 72.081 433.555 82.2656C433.555 92.4077 431.658 101.271 427.866 108.857C424.073 116.442 418.746 122.344 411.886 126.563C405.025 130.781 396.992 132.891 387.788 132.891ZM387.851 116.847C393.817 116.847 398.761 115.27 402.681 112.116C406.601 108.963 409.499 104.766 411.374 99.5242C413.292 94.2827 414.251 88.5085 414.251 82.2017C414.251 75.9375 413.292 70.1847 411.374 64.9432C409.499 59.6591 406.601 55.419 402.681 52.223C398.761 49.027 393.817 47.429 387.851 47.429C381.843 47.429 376.857 49.027 372.894 52.223C368.974 55.419 366.055 59.6591 364.137 64.9432C362.262 70.1847 361.324 75.9375 361.324 82.2017C361.324 88.5085 362.262 94.2827 364.137 99.5242C366.055 104.766 368.974 108.963 372.894 112.116C376.857 115.27 381.843 116.847 387.851 116.847ZM463.88 132.124C460.386 132.124 457.382 130.888 454.868 128.416C452.353 125.902 451.096 122.876 451.096 119.34C451.096 115.845 452.353 112.862 454.868 110.391C457.382 107.876 460.386 106.619 463.88 106.619C467.375 106.619 470.379 107.876 472.893 110.391C475.407 112.862 476.664 115.845 476.664 119.34C476.664 121.683 476.068 123.835 474.875 125.795C473.724 127.713 472.19 129.247 470.272 130.398C468.355 131.548 466.224 132.124 463.88 132.124Z" fill="black"/>
</svg>
